<?xml version="1.0" encoding="UTF-8" standalone="no"?>
<!-- Generator: Adobe Illustrator 26.2.1, SVG Export Plug-In . SVG Version: 6.00 Build 0)  -->

<svg
   version="1.1"
   id="Layer_1"
   x="0px"
   y="0px"
   viewBox="0 0 512 512"
   xml:space="preserve"
   width="512"
   height="512"
   xmlns="http://www.w3.org/2000/svg"
   xmlns:svg="http://www.w3.org/2000/svg"><defs
   id="defs1496" />
<g
   id="g1491"
   transform="matrix(10.893617,0,0,10.893617,-577.3617,-495.65958)">
	
	
<circle
   style="fill:#ffffff;stroke:none;stroke-width:1.06604;stroke-linecap:square;stroke-linejoin:round;stroke-miterlimit:4;stroke-dasharray:none;stroke-opacity:1;paint-order:stroke fill markers"
   id="path1075"
   cx="76.5"
   cy="69"
   r="23.5" /><rect
   style="fill:#4ac1e0;fill-opacity:1;stroke-width:0;stroke-linecap:round;stroke-linejoin:round;paint-order:stroke fill markers"
   id="rect932"
   width="4.0327764"
   height="12.203096"
   x="75.092766"
   y="56.023705" /><path
   d="m 76.5,46.280274 c -12.471681,0 -22.719727,10.151367 -22.719727,22.719727 0,12.568359 10.151367,22.719726 22.719727,22.719726 12.568359,0 22.719726,-10.151367 22.719726,-22.719726 0,-12.56836 -10.151367,-22.719727 -22.719726,-22.719727 z m -0.966798,20.979492 v -3.770507 -3.09375 -3.673829 -0.290039 c 0.483399,-0.09667 1.063477,-0.09667 1.546875,-0.09667 0.580079,0 1.063477,0 1.546875,0.09667 v 0.38672 3.673826 3.09375 3.770509 0.290039 c -0.483398,0.09667 -1.063476,0.09667 -1.546875,0.09667 -0.483398,0 -1.063476,0 -1.546875,-0.09667 z m 8.604493,7.734375 C 76.5,81.278321 70.3125,75.090811 70.3125,75.090811 v 9.667968 c -1.450196,0.483399 -3.190431,0 -3.190431,0 V 67.453126 c 0,-0.19336 0,-0.29004 0,-0.483399 0.580079,-6.380858 6.38086,-8.507813 6.38086,-8.507813 v 3.577148 c -5.510743,3.963868 -2.610352,9.184572 -2.610352,9.184572 3.383791,5.99414 9.184571,3.190429 9.184571,3.190429 4.833985,-2.513672 4.060547,-7.057617 4.060547,-7.057617 -0.483399,-3.673827 -3.383789,-5.317384 -3.383789,-5.317384 v -3.577148 c 2.416992,0.773439 6.1875,4.060547 6.380859,8.894532 0.19336,4.930664 -2.99707,7.637695 -2.99707,7.637695 z"
   id="path1489"
   style="fill:#000000;stroke:none;stroke-width:0.966705;stroke-miterlimit:4;stroke-dasharray:none;stroke-opacity:1" /></g>
</svg>
